<svg width="45" height="50" viewBox="0 0 45 50" fill="none" xmlns="http://www.w3.org/2000/svg">
<path d="M22.4852 47.8969C21.7549 47.8969 21.0807 47.5463 20.6537 46.9357L1.88924 19.9904C1.40608 19.3006 1.3499 18.396 1.73193 17.6498C2.1252 16.9035 2.88926 16.4286 3.72074 16.4286H20.0357V4.27318C20.0357 3.00676 21.0245 2.01172 22.2942 2.01172C23.0246 2.01172 23.6987 2.36225 24.1257 2.98415L42.8902 29.9295C43.3734 30.6193 43.4296 31.5238 43.0475 32.2701C42.6655 33.0164 41.8902 33.4913 41.0587 33.4913H24.7437V45.6467C24.7437 46.9131 23.7549 47.9082 22.4852 47.9082V47.8969Z" fill="#ECB43F"/>
<path d="M22.3064 3.14232C22.6435 3.14232 22.9806 3.28932 23.2166 3.62854L41.9811 30.5739C42.4979 31.3202 41.9811 32.3492 41.0597 32.3492H23.6211V45.6353C23.6211 46.3363 23.0593 46.766 22.4862 46.766C22.1491 46.766 21.812 46.619 21.5761 46.2798L2.81158 19.3457C2.29472 18.5994 2.81158 17.5705 3.73296 17.5705H21.1716V4.27306C21.1716 3.572 21.7334 3.14232 22.3064 3.14232ZM22.3064 0.880859C20.4412 0.880859 18.9243 2.40735 18.9243 4.27306V15.2977H3.73296C2.4745 15.2977 1.3284 15.9988 0.744119 17.1295C0.159835 18.2602 0.249725 19.6058 0.968843 20.6461L19.7333 47.5914C20.3738 48.5073 21.3738 49.0388 22.4862 49.0388C24.3514 49.0388 25.8683 47.5123 25.8683 45.6466V34.6219H41.0597C42.3182 34.6219 43.4643 33.9209 44.0485 32.7901C44.6328 31.6594 44.5429 30.3138 43.8238 29.2736L25.0593 2.3282C24.4076 1.4123 23.4076 0.880859 22.3064 0.880859Z" fill="black"/>
</svg>
